<svg id="Layer_1" data-name="Layer 1" xmlns="http://www.w3.org/2000/svg" viewBox="0 0 1200 435.34796"><defs><style>.cls-1{fill:none;}.cls-2{fill:#0a0a0a;}.cls-3{fill:#040404;}.cls-4{fill:#080808;}.cls-5{fill:#0e0e0e;}.cls-6{fill:#030303;}.cls-7{fill:#f9f9f9;}.cls-8{fill:#e9b5b4;}.cls-9{fill:#cae9f0;}.cls-10{fill:#f3ebbc;}.cls-11{fill:#070707;}.cls-12{fill:#cfeff5;}.cls-13{fill:#82d9ee;}.cls-14{fill:#f5f2f0;}</style></defs><path class="cls-1" d="M868.50348,231.14385q-3.19419-.00321-6.38818-.0003l-.02149-.29133c-5.75738.40766-11.61005.31025-17.24512,1.36658-5.51764,1.03436-10.183,3.79572-11.23321,10.2732-.96417,5.94732.5711,10.85583,5.54327,14.33984,11.6651,8.17346,32.48633,2.40216,38.51038-10.57727C882.35632,236.15575,879.32275,231.15441,868.50348,231.14385Z"/><path class="cls-1" d="M292.84674,191.797c-.55914-.20209-1.13916-.38318-1.73193-.54987q-.00751-4.43234-.0149-8.86462.00742,4.43225.01484,8.86462C291.70752,191.41381,292.2876,191.5949,292.84674,191.797Z"/><path class="cls-1" d="M599.88562,231.14385q-3.194-.00321-6.38812-.0003l-.02143-.2912c-5.7575.40728-11.6101.30981-17.24554,1.36535-5.51733,1.03333-10.18445,3.79218-11.23767,10.269-.96692,5.94708.5683,10.85785,5.5368,14.34338,11.655,8.176,32.48749,2.40466,38.514-10.57043C613.73334,236.16283,610.69916,231.15441,599.88562,231.14385Z"/><path class="cls-2" d="M355.62177,283.2293c-5.411-2.63-6.56421-5.66418-6.5329-11.07874q.31467-54.64644.03051-109.29565c-.01983-4.95575.92762-7.8161,6.05677-10.40045,16.996-8.56348,22.5108-28.60669,13.0169-44.21137-9.62329-15.81756-29.44116-20.157-45.14965-9.13952-4.60462,3.22955-7.69751,2.86242-12.11206.53979q-39.52258-20.79465-79.2934-41.11651c-4.75378-2.41437-6.18024-5.10169-6.14526-10.43732.11761-17.94336-13.42463-31.26495-30.96405-31.345-18.05072-.08246-31.6045,13.33777-31.35669,31.80389.06707,5.00183-1.27839,7.50214-5.73407,9.77088Q117.2334,78.7907,77.36969,99.92321c-4.707,2.49817-7.91309,2.30774-12.00745-1.07294a25.20327,25.20327,0,0,0-16.79583-5.80572c-15.15461-.05378-28.06781,9.68591-31.50556,22.96923-3.8454,14.85859,2.51373,29.79059,16.68128,36.70569,4.68066,2.28473,6.02807,4.62073,6.00335,9.50336q-.28106,55.55759.01038,111.11694c.028,4.98011-1.58606,7.311-6.10156,9.54248-17.20856,8.50428-22.85511,29.07386-12.847,44.92023,9.65326,15.28455,30.536,19.2561,45.5716,8.24988,3.59759-2.63361,5.87323-3.28815,10.1192-1.039q39.87048,21.1203,80.18884,41.39325c5.102,2.56878,6.553,5.54632,6.50732,11.14843-.14587,17.89924,13.5044,31.11,31.19465,31.04853,17.74511-.06153,31.35821-13.28571,31.09607-31.16388-.08405-5.73316,1.63085-8.5448,6.626-11.06793q39.46051-19.932,78.54682-40.59455c4.91528-2.607,7.899-2.45581,12.577.88361,15.02722,10.72711,35.80939,5.8504,45.21961-9.86054C377.5871,311.55266,371.94727,291.16442,355.62177,283.2293Zm-14.31952-174.364a15.75652,15.75652,0,0,1,15.64434,15.50628c.08826,8.19733-7.149,15.715-15.39691,15.99311-8.60406.2901-16.08191-7.28882-16.00653-16.22272A15.36878,15.36878,0,0,1,341.30225,108.86529ZM194.56934,32.3496c8.38385.134,15.68078,7.47815,15.6961,15.79779.01477,8.09876-7.52368,15.691-15.72912,15.84137-8.68219.15906-16.16193-7.48169-16.01166-16.35638A15.88621,15.88621,0,0,1,194.56934,32.3496ZM31.68018,123.94567a15.75354,15.75354,0,0,1,31.49273.61279,16.32072,16.32072,0,0,1-15.59009,15.8172C39.0694,140.50231,31.49213,132.67376,31.68018,123.94567Zm15.96,202.741a15.72157,15.72157,0,1,1,.05182-31.4386,15.72035,15.72035,0,0,1-.05182,31.4386Zm146.83594,76.444c-8.7425.11938-16.169-7.53247-15.95051-16.43451a15.47066,15.47066,0,0,1,16.11127-15.1164,15.78973,15.78973,0,0,1,15.63239,15.75141C210.24884,395.51842,202.75256,403.01775,194.47614,403.13073Zm115.35211-91.07337c.128,4.68781-1.04651,7.076-5.08716,9.145q-40.96573,20.97575-81.73078,42.33954c-3.41394,1.79022-5.56744,1.75348-8.8551-.63757-13.457-9.78748-26.1286-9.91034-39.44391-.13257-3.75061,2.75427-6.1817,2.26074-9.70019.41852q-39.966-20.92621-80.1012-41.52875c-4.60827-2.35254-6.264-4.861-6.17169-10.36969.215-12.82989-5.59-23.0191-17.5907-28.42285-4.74859-2.13819-5.97876-4.71344-5.91058-9.55219.2608-18.51056.10541-37.02691.10541-55.5412,0-18.81768.07775-37.636-.06238-56.45269-.02979-4.00617.77679-6.24872,4.98321-8.24854,12.67322-6.0249,19.34583-16.46789,18.49836-30.679-.2696-4.52161,1.3471-6.43476,4.97949-8.29688q40.95456-20.99478,81.74121-42.31433c3.21875-1.6814,5.37939-2.22968,8.82916.29755,13.76819,10.08642,26.45947,10.01471,40.18634-.03675,2.965-2.17114,4.82392-2.321,7.97919-.66693q41.16293,21.57789,82.53247,42.76312c3.60455,1.85,5.13733,3.631,4.8858,8.273-.76269,14.07331,5.69776,24.72638,18.48737,30.67475,4.23736,1.97076,5.00067,4.19983,4.98968,8.20642-.10376,37.63513-.16,75.27136.061,112.90546.028,4.781-1.7981,6.69714-5.87165,8.60687C315.31641,288.54815,309.46594,298.80089,309.82825,312.05736Zm30.67743,14.60541a15.72332,15.72332,0,0,1,.90265-31.428,15.72311,15.72311,0,1,1-.90265,31.428Z"/><path class="cls-3" d="M1077.7312,161.40887c-4.80469-2.96692-20.45776-.29279-20.45776-.29279s-25.49439,45.60406-38.003,66.6991c-11.78876-19.5412-39.04-66.89783-39.04-66.89783s-3.98316-.65094-13.21942-.18262c-7.31135.37067-8.96924,2.30255-8.87128,9.27442.39276,27.92852.16235,55.86572.16241,83.79974.00013,14.64429.01325,14.2644,14.74408,14.7774,6.96308.24256,9.23914-1.42639,8.9765-8.75457-.61114-17.04883-.19476-34.13434-.19476-51.205,9.99274,13.37915,18.32813,27.00311,26.65747,40.63086,7.28748,11.92267,13.6109,11.86761,20.81555-.18036q12.43744-20.79822,24.8855-41.59027c2.15833,15.3111,2.14356,30.04779,2.16211,44.78448.02136,17.1222.0271,16.93555,17.69385,16.27851,4.44275-.16522,5.63562-1.439,5.59741-5.74335-.285-32.18329-.33435-64.36847-.51648-96.55267C1079.114,164.58922,1079.74536,162.65252,1077.7312,161.40887Z"/><path class="cls-4" d="M1184.12915,254.78991c-.01147-5.10712-1.36987-6.79694-6.63257-6.66211-13.69348.35077-27.408-.11328-41.10156.23608-5.21.13288-6.635-1.46612-6.56836-6.59009.27307-20.951.11328-41.90771.11316-62.86236-.00012-18.275.00024-18.00531-17.92517-17.99249-5.72888.004-7.24024,1.70532-7.12024,7.219.33655,15.481.11706,30.97394.11743,46.46216.00012,15.79187.20581,31.588-.11621,47.37323-.10657,5.225,1.50867,6.64978,6.67163,6.57519,19.78845-.286,39.58362-.11566,59.37622-.11566C1184.41382,268.43273,1184.15991,268.43334,1184.12915,254.78991Z"/><path class="cls-2" d="M527.54822,179.50542c4.29,3.21338,6.419,2.71289,9.50512-.85467,4.05933-4.69281-1.14282-5.74829-3.05407-7.30652A48.39841,48.39841,0,0,0,503.5376,160.519c-28.1521-.2127-49.73749,14.496-56.933,36.39215-7.35046,22.36756.02118,47.23664,17.93311,60.49952,19.87683,14.71777,48.66241,15.97717,67.31427,2.42877,2.489-1.808,9.102-2.85877,5.02808-9.03113-4.01569-6.084-6.95343-2.18335-10.74225.557-16.88629,12.21338-44.1604,9.42285-58.64905-5.70166a44.14649,44.14649,0,0,1-2.79041-58.18714C479.63147,168.66283,507.94769,164.82421,527.54822,179.50542Z"/><path class="cls-5" d="M620.09589,209.13244c-1.33521-8.72693-6.30964-15.44715-14.48908-18.52112-16.06988-6.03949-31.60632-3.85443-46.31348,4.89264-2.961,1.761-3.454,3.44757-1.51531,6.48309,2.02825,3.1759,3.58062,4.12683,6.94036,1.48737,4.1-3.22119,9.17749-4.7641,14.24152-5.78186,17.8042-3.57825,28.79883,3.2774,31.13116,18.57336.83716,5.49054-.78442,6.68182-5.98925,6.69922-10.91571.03656-21.92469-1.28723-32.73279,1.46875-10.87195,2.77228-16.90357,9.36468-17.569,19.31244-.74475,11.13373,4.29529,19.51654,15.31372,22.96857,14.79559,4.63531,28.81036,3.46563,41.65271-9.886,0,3.69263.19324,5.75214-.03943,7.76269-.51636,4.46241,2.49011,3.89557,5.21771,3.86908,2.73279-.02642,5.6637.50513,5.51184-3.85943C620.81323,246.11437,622.91333,227.54772,620.09589,209.13244ZM609.04364,246.2597c-6.02649,12.97509-26.85895,18.74639-38.514,10.57043-4.9685-3.48553-6.50372-8.3963-5.5368-14.34338,1.05322-6.47687,5.72034-9.23572,11.23767-10.269,5.63544-1.05554,11.488-.95807,17.24554-1.36535l.02143.2912q3.19409,0,6.38812.0003C610.69916,231.15441,613.73334,236.16283,609.04364,246.2597Z"/><path class="cls-5" d="M888.431,207.71715a22,22,0,0,0-14.68561-17.33007c-15.82049-5.62323-31.03595-3.53638-45.51819,4.90576-3.50207,2.0415-3.66058,3.97375-1.56018,7.1607,1.8963,2.87763,3.44544,3.50507,6.36145,1.2273,4.12854-3.225,9.14368-4.84168,14.18817-5.92121,17.708-3.7893,28.87122,2.9928,31.42273,18.14167,1.01966,6.05365-.89386,7.10553-6.45727,7.08215-10.609-.04456-21.30792-1.25671-31.82678,1.37909-11.34912,2.84381-17.47834,9.5661-17.97809,19.92462-.53192,11.0285,4.72076,19.215,15.87433,22.604,14.79217,4.49462,28.7005,2.9533,41.143-9.9079,0,3.885.13794,6.0202-.02954,8.13128-.31769,4.00153,2.50372,3.39862,4.8208,3.30555,2.49561-.10041,5.99079,1.06811,5.84644-3.43927C889.42084,245.88878,891.86127,226.67913,888.431,207.71715Zm-10.7619,38.53742c-6.024,12.97943-26.84528,18.75073-38.51038,10.57727-4.97217-3.484-6.50744-8.39252-5.54327-14.33984,1.05017-6.47748,5.71557-9.23884,11.23321-10.2732,5.63507-1.05633,11.48774-.95892,17.24512-1.36658l.02149.29133q3.19426,0,6.38818.0003C879.32275,231.15441,882.35632,236.15575,877.66913,246.25457Z"/><path class="cls-5" d="M723.77228,194.87115c.03314-4.57624-.38526-7.18628-6.21308-7.12055-6.29455.07086-4.81,3.96686-4.86059,7.31055-.09674,6.37573.0404,12.75494-.04547,19.131-.106,7.88074.49157,15.7785-1.00251,23.62225-2.69982,14.1745-12.97937,22.0514-28.1972,21.402-13.49853-.57611-21.28265-7.84466-22.17383-22.67962-.87268-14.52631-.52472-29.13544-.39715-43.70557.03711-4.23016-1.69855-5.09516-5.41077-4.95111-3.31757.12866-5.93726.09979-5.77075,4.6867.61633,16.97748-1.22071,34.0318,1.1933,50.94526,1.94983,13.66,11.6679,23.11474,25.24469,24.95306,13.96691,1.89117,26.49121-.79907,36.9262-14.16168,0,3.69848-.21441,4.9591.04133,6.11633.69439,3.14221-2.66266,8.01831,4.6618,8.23785,7.17059.21485,5.92377-4.10858,5.92645-8.19256C723.70917,238.60021,723.61414,216.73485,723.77228,194.87115Z"/><path class="cls-2" d="M789.53992,226.32305c-7.35681-1.83166-14.8996-3.02338-22.11792-5.27173-5.49506-1.71167-11.15247-4.21844-10.45081-11.75122.72852-7.81958,6.44983-10.75928,13.0166-11.766,9.429-1.44562,18.99121-1.20337,27.46363,3.86621,4.19641,2.51092,5.12182-.03552,6.73974-2.69067,1.88556-3.0943.95636-4.945-2.19085-6.24268-13.98652-5.767-28.265-7.41687-42.57734-1.76331-9.64074,3.80817-14.06518,11.74347-13.45178,21.50751.63184,10.05554,7.09522,15.12305,15.78192,17.67371,7.83881,2.30169,15.973,3.584,23.92621,5.52325,6.45935,1.57508,12.61005,3.78046,11.80914,12.288-.75518,8.02191-6.9815,10.309-13.418,11.2442-11.06019,1.60693-21.96027.28076-31.69013-5.54657-4.019-2.40711-5.63379-1.44782-7.715,2.10492-2.37769,4.0592.311,5.47223,2.99688,6.915,8.46112,4.54547,17.5752,6.55182,27.18848,6.92138,4.82294-.5415,9.76117-.60193,14.44647-1.718,12.3877-2.95051,19.27051-10.6294,19.39563-20.87592C808.82745,235.72063,803.29944,229.74889,789.53992,226.32305Z"/><path class="cls-6" d="M930.718,161.01183c.00628-3.56488.24994-6.31347-4.96851-6.22613-4.72571.079-6.20355,1.306-6.12054,6.127.28784,16.68512.11108,33.37823.11078,50.0683-.00007,16.99359.04779,33.98736-.03638,50.98053-.01923,3.89758-.21485,6.69244,5.48138,6.69848,5.60877.00592,5.551-2.61932,5.54206-6.59735Q930.613,211.53741,930.718,161.01183Z"/><path class="cls-7" d="M333.43323,274.20074c-.221-37.6341-.16474-75.27033-.061-112.90546.011-4.00659-.75232-6.23566-4.98968-8.20642-12.78961-5.94837-19.25006-16.60144-18.48737-30.67475.25153-4.642-1.28125-6.423-4.8858-8.273q-41.349-21.22219-82.53247-42.76312c-3.15527-1.65411-5.01416-1.50421-7.97919.66693-13.72687,10.05146-26.41815,10.12317-40.18634.03675-3.44977-2.52723-5.61041-1.97895-8.82916-.29755Q124.6912,93.09319,83.741,114.09844c-3.63239,1.86212-5.24909,3.77527-4.97949,8.29688.84747,14.21112-5.82514,24.65411-18.49836,30.679-4.20642,1.99982-5.013,4.24237-4.98321,8.24854.14013,18.81665.06238,37.635.06238,56.45269,0,18.51429.15539,37.03064-.10541,55.5412-.06818,4.83875,1.162,7.414,5.91058,9.55219,12.00067,5.40375,17.80573,15.593,17.5907,28.42285-.09235,5.50873,1.56342,8.01715,6.17169,10.36969q40.18085,20.51128,80.1012,41.52875c3.51849,1.84222,5.94958,2.33575,9.70019-.41852,13.31531-9.77777,25.98694-9.65491,39.44391.13257,3.28766,2.39105,5.44116,2.42779,8.8551.63757q40.75818-21.3739,81.73078-42.33954c4.04065-2.069,5.21521-4.45715,5.08716-9.145-.36231-13.25647,5.48816-23.50921,17.73333-29.24975C331.63513,280.89788,333.46124,278.98174,333.43323,274.20074Zm-34.35071,2.92364c.0473,5.82062-2.491,9.47974-7.70209,12.15479q-45.0131,23.10625-89.81091,46.62768c-5.11817,2.68671-9.55774,2.55176-14.61871-.10272-29.60236-15.52667-59.23737-30.99548-89.029-46.15631-6.32647-3.21942-8.44226-7.48444-8.39587-14.39545.25873-38.55768.19592-77.11822.0484-115.67706-.02289-5.9621,1.21155-10.23914,7.13379-13.24872q44.69952-22.71506,89.038-46.13232c6.0058-3.17212,10.95569-3.33088,17.0373-.10584,28.72412,15.23206,57.648,30.09021,86.527,45.031,3.79511,1.9635,6.45081,3.7901,7.97712,5.6286a6.9476,6.9476,0,0,1,1.2901,2.22137,4.99359,4.99359,0,0,1,.23742,1.11487c.21674,2.298-1.20556,4.74408-4.236,7.59509q-.64938.61094-1.39716,1.2475c-.21643.18426-.44891.37347-.67773.56134-.46106.37842-.92255.75684-1.4339,1.15015q.01474,8.87219.02972,17.7442.00751,4.43225.0149,8.86462c.59277.16669,1.17279.34778,1.73193.54987a15.72489,15.72489,0,0,1,1.60669.67645q.50931.251.97748.5412a6.97863,6.97863,0,0,1,3.47272,6.3902c.00268,5.0744-3.42774,7.05987-7.8097,8.00592q-.00741,9.54748-.01465,19.09485c6.006,1.49792,8.12153,5.51544,8.04175,11.4533C298.9458,251.01208,298.97662,264.06975,299.08252,277.12438Z"/><path class="cls-8" d="M194.53632,63.98876c8.20544-.15039,15.74389-7.74261,15.72912-15.84137-.01532-8.31964-7.31225-15.66376-15.6961-15.79779a15.88621,15.88621,0,0,0-16.04468,15.28278C178.37439,56.50707,185.85413,64.14782,194.53632,63.98876Z"/><path class="cls-8" d="M194.6369,371.57982a15.47066,15.47066,0,0,0-16.11127,15.1164c-.2185,8.902,7.208,16.55389,15.95051,16.43451,8.27642-.113,15.7727-7.61231,15.79315-15.7995A15.78973,15.78973,0,0,0,194.6369,371.57982Z"/><path class="cls-9" d="M47.692,295.2481a15.72035,15.72035,0,1,0,15.51483,15.73077A15.798,15.798,0,0,0,47.692,295.2481Z"/><path class="cls-10" d="M341.40833,295.23473a15.72332,15.72332,0,0,0-.90265,31.428,15.72311,15.72311,0,1,0,.90265-31.428Z"/><path class="cls-10" d="M63.17291,124.55846a15.75354,15.75354,0,0,0-31.49273-.61279c-.18805,8.72809,7.38922,16.55664,15.90264,16.43A16.32072,16.32072,0,0,0,63.17291,124.55846Z"/><path class="cls-9" d="M341.54968,140.36468c8.24787-.27808,15.48517-7.79578,15.39691-15.99311a15.75652,15.75652,0,0,0-15.64434-15.50628,15.36878,15.36878,0,0,0-15.7591,15.27667C325.46777,133.07586,332.94562,140.65478,341.54968,140.36468Z"/><path class="cls-11" d="M291.07928,226.50561c-5.873,1.65252-8.04431,5.4945-7.86022,11.55151.32269,10.61719-.1186,21.2569.182,31.87537.12116,4.27832-1.4458,6.50439-5.17633,8.40588q-34.93085,17.80445-69.63879,36.04126c-5.41858,2.85156-6.62219,1.46-6.59113-4.221q.25947-47.36472.00427-94.73138c-.01727-3.85077,1.18085-5.99665,4.67-7.75928,28.18652-14.23926,56.27954-28.66254,84.40094-43.0296l.00018-.00006c.51135-.39331.97284-.77173,1.4339-1.15015.22882-.18787.4613-.37708.67773-.56134q.74781-.63684,1.39716-1.2475c3.03046-2.851,4.45276-5.29706,4.236-7.59509a4.99359,4.99359,0,0,0-.23742-1.11487,6.9476,6.9476,0,0,0-1.2901-2.22137c-1.52631-1.8385-4.182-3.6651-7.97712-5.6286-28.879-14.94074-57.80285-29.79889-86.527-45.031-6.08161-3.225-11.0315-3.06628-17.0373.10584q-44.33414,23.41626-89.038,46.13232c-5.92224,3.00958-7.15668,7.28662-7.13379,13.24872.14752,38.55884.21033,77.11938-.0484,115.67706-.04639,6.911,2.0694,11.176,8.39587,14.39545,29.79163,15.16083,59.42664,30.62964,89.029,46.15631,5.061,2.65448,9.50054,2.78943,14.61871.10272q44.79885-23.51641,89.81091-46.62768c5.21112-2.675,7.74939-6.33417,7.70209-12.15479-.1059-13.05463-.13672-26.1123.03851-39.16547C299.20081,232.02105,297.08527,228.00353,291.07928,226.50561Zm-104.3944,37.379c.00006,5.79871-.02527,11.59784-.04261,17.39679-.01727,5.79908-.02655,11.59784.0055,17.396q.032,5.79813.12909,11.59509c.10382,5.8996-1.425,6.84113-6.631,4.10523q-35.06525-18.427-70.3598-36.418c-3.55945-1.81665-4.4621-4.20374-4.44842-7.92969q.17349-47.29834-.00574-94.59753c-.02674-5.69922,1.28589-6.9986,6.67212-4.15046q34.612,18.30213,69.51147,36.05915c4.23487,2.14892,5.32862,4.81756,5.262,9.24579-.11865,7.88134-.14184,15.76428-.13537,23.64746C186.6485,248.11773,186.68475,256.00139,186.68488,263.88457Zm10.6101-69.00726a5.40448,5.40448,0,0,1-5.22619.29938c-25.2403-13.08045-50.47144-26.17822-77.31543-40.10742,20.60986-10.75324,40.29413-19.52741,58.334-30.89679,15.15607-9.55182,27.54114-9.46595,42.65821.05841,17.903,11.2796,37.44323,19.97418,58.24377,30.816C247.23212,168.94109,222.26147,181.90533,197.295,194.87731Z"/><path class="cls-12" d="M206.66907,207.668c-3.48914,1.76263-4.68726,3.90851-4.67,7.75928q.21242,47.36508-.00427,94.73138c-.03106,5.681,1.17255,7.07257,6.59113,4.221q34.69418-18.25863,69.63879-36.04126c3.73053-1.90149,5.29749-4.12756,5.17633-8.40588-.3006-10.61847.14069-21.25818-.182-31.87537-.18409-6.057,1.98724-9.899,7.86022-11.55151q.00725-9.54739.01465-19.09485c-4.09332-.984-7.4851-2.77161-7.682-7.57862-.21521-5.25409,3.33258-7.32916,7.70282-8.585q-.00752-4.43234-.01484-8.86462-.01482-8.87211-.02972-17.7442l-.00018.00006C262.94861,179.00542,234.85559,193.4287,206.66907,207.668Z"/><path class="cls-5" d="M283.41193,199.83214c.1969,4.807,3.58868,6.59461,7.682,7.57862,4.382-.94605,7.81238-2.93152,7.8097-8.00592a6.97863,6.97863,0,0,0-3.47272-6.3902q-.467-.29114-.97748-.5412a15.72489,15.72489,0,0,0-1.60669-.67645c-.55914-.20209-1.13922-.38318-1.732-.54987C286.74451,192.503,283.19672,194.57805,283.41193,199.83214Z"/><path class="cls-13" d="M181.51544,207.34118Q146.59979,189.62362,112.004,171.282c-5.38623-2.84814-6.69886-1.54876-6.67212,4.15046q.22155,47.29806.00574,94.59753c-.01368,3.726.889,6.113,4.44842,7.92969q35.28387,18.007,70.3598,36.418c5.206,2.7359,6.73487,1.79437,6.631-4.10523q-.10209-5.797-.12909-11.59509c-.032-5.79816-.02277-11.59692-.0055-17.396.01734-5.79895.04267-11.59808.04261-17.39679-.00013-7.88318-.03638-15.76684-.04285-23.65014-.00647-7.88318.01672-15.76612.13537-23.64746C186.84406,212.15874,185.75031,209.4901,181.51544,207.34118Z"/><path class="cls-14" d="M215.74561,124.23089c-15.11707-9.52436-27.50214-9.61023-42.65821-.05841-18.03991,11.36938-37.72418,20.14355-58.334,30.89679,26.844,13.9292,52.07513,27.027,77.31543,40.10742a5.40448,5.40448,0,0,0,5.22619-.29938c24.96649-12.972,49.93714-25.93622,76.6944-39.83044C253.18884,144.20507,233.64856,135.51049,215.74561,124.23089Z"/></svg>